ffmpeg started on 2026-01-05 at 18:24:20
Report written to "D:\Convert\FFMetrics\reports\psnr_report-6.txt"
Log level: 32
Command line:
ffmpeg -hide_banner -nostdin -r 24000/1001 -i "F:\\Convert\\files\\[DC] Make Heroine ga Oosugiru - 07_Telegram_HEVC(58).mkv" -r 24000/1001 -i "F:\\Convert\\files\\[DC] Make Heroine ga Oosugiru - 07_Telegram.mp4" -lavfi "[0:v]settb=AVTB,setpts=PTS-STARTPTS,format=pix_fmts=yuv420p10le,fps=24000/1001,scale=1920:1080:flags=bicubic[main];[1:v]settb=AVTB,setpts=PTS-STARTPTS,format=pix_fmts=yuv420p,fps=24000/1001,scale=1920:1080:flags=bicubic[ref];[main][ref]psnr=eof_action=endall:stats_file='D\\:/Convert/FFMetrics/logs/psnr_logfile-6.txt'" -f null -
Input #0, matroska,webm, from 'F:\Convert\files\[DC] Make Heroine ga Oosugiru - 07_Telegram_HEVC(58).mkv':
  Metadata:
    COMPATIBLE_BRANDS: isomiso2avc1mp41
    MAJOR_BRAND     : isom
    MINOR_VERSION   : 512
    ENCODER         : Lavf61.7.100
  Duration: 00:24:06.79, start: -0.021000, bitrate: 981 kb/s
  Stream #0:0: Video: hevc (Main 10), yuv420p10le(tv, bt709, progressive), 1920x1080 [SAR 1:1 DAR 16:9], 23.98 fps, 23.98 tbr, 1k tbn (default)
      Metadata:
        HANDLER_NAME    : VideoHandler
        VENDOR_ID       : [0][0][0][0]
        ENCODER         : Lavc61.19.100 libx265
        BPS             : 784110
        DURATION        : 00:24:06.528708333
        NUMBER_OF_FRAMES: 34682
        NUMBER_OF_BYTES : 141779750
        _STATISTICS_WRITING_APP: mkvpropedit v94.0 ('Initiate') 64-bit
        _STATISTICS_WRITING_DATE_UTC: 2026-01-05 12:41:34
        _STATISTICS_TAGS: BPS DURATION NUMBER_OF_FRAMES NUMBER_OF_BYTES
  Stream #0:1: Audio: aac (LC), 48000 Hz, stereo, fltp (default)
      Metadata:
        HANDLER_NAME    : SoundHandler
        VENDOR_ID       : [0][0][0][0]
        ENCODER         : Lavc61.19.100 aac
        BPS             : 193194
        DURATION        : 00:24:06.784000000
        NUMBER_OF_FRAMES: 67819
        NUMBER_OF_BYTES : 34938755
        _STATISTICS_WRITING_APP: mkvpropedit v94.0 ('Initiate') 64-bit
        _STATISTICS_WRITING_DATE_UTC: 2026-01-05 12:41:34
        _STATISTICS_TAGS: BPS DURATION NUMBER_OF_FRAMES NUMBER_OF_BYTES
Input #1, mov,mp4,m4a,3gp,3g2,mj2, from 'F:\Convert\files\[DC] Make Heroine ga Oosugiru - 07_Telegram.mp4':
  Metadata:
    major_brand     : isom
    minor_version   : 512
    compatible_brands: isomiso2avc1mp41
    encoder         : Lavf60.16.100
  Duration: 00:24:06.74, start: 0.000000, bitrate: 3764 kb/s
  Stream #1:0[0x1](und): Video: h264 (High) (avc1 / 0x31637661), yuv420p(tv, bt709, progressive), 1920x1080 [SAR 1:1 DAR 16:9], 3616 kb/s, 23.98 fps, 23.98 tbr, 24k tbn (default)
      Metadata:
        handler_name    : VideoHandler
        vendor_id       : [0][0][0][0]
        encoder         : Lavc60.31.102 h264_qsv
  Stream #1:1[0x2](und): Audio: aac (HE-AACv2) (mp4a / 0x6134706D), 48000 Hz, stereo, fltp, 144 kb/s (default)
      Metadata:
        handler_name    : SoundHandler
        vendor_id       : [0][0][0][0]
Stream mapping:
  Stream #0:0 (hevc) -> settb:default
  Stream #1:0 (h264) -> settb:default
  psnr:default -> Stream #0:0 (wrapped_avframe)
  Stream #0:1 -> #0:1 (aac (native) -> pcm_s16le (native))
Output #0, null, to 'pipe:':
  Metadata:
    COMPATIBLE_BRANDS: isomiso2avc1mp41
    MAJOR_BRAND     : isom
    MINOR_VERSION   : 512
    encoder         : Lavf61.7.100
  Stream #0:0: Video: wrapped_avframe, yuv420p10le(tv, bt709, progressive), 1920x1080 [SAR 1:1 DAR 16:9], q=2-31, 200 kb/s, 23.98 fps, 23.98 tbn
      Metadata:
        encoder         : Lavc61.19.100 wrapped_avframe
  Stream #0:1: Audio: pcm_s16le, 48000 Hz, stereo, s16, 1536 kb/s (default)
      Metadata:
        HANDLER_NAME    : SoundHandler
        VENDOR_ID       : [0][0][0][0]
        _STATISTICS_TAGS: BPS DURATION NUMBER_OF_FRAMES NUMBER_OF_BYTES
        BPS             : 193194
        DURATION        : 00:24:06.784000000
        NUMBER_OF_FRAMES: 67819
        NUMBER_OF_BYTES : 34938755
        _STATISTICS_WRITING_APP: mkvpropedit v94.0 ('Initiate') 64-bit
        _STATISTICS_WRITING_DATE_UTC: 2026-01-05 12:41:34
        encoder         : Lavc61.19.100 pcm_s16le
frame=  184 fps=0.0 q=-0.0 size=N/A time=00:00:07.67 bitrate=N/A speed=14.9x    frame=  452 fps=435 q=-0.0 size=N/A time=00:00:18.85 bitrate=N/A speed=18.2x    frame=  726 fps=469 q=-0.0 size=N/A time=00:00:30.32 bitrate=N/A speed=19.6x    frame=  936 fps=452 q=-0.0 size=N/A time=00:00:39.03 bitrate=N/A speed=18.8x    frame= 1118 fps=430 q=-0.0 size=N/A time=00:00:46.62 bitrate=N/A speed=  18x    frame= 1290 fps=415 q=-0.0 size=N/A time=00:00:53.80 bitrate=N/A speed=17.3x    frame= 1481 fps=408 q=-0.0 size=N/A time=00:01:01.77 bitrate=N/A speed=  17x    frame= 1634 fps=395 q=-0.0 size=N/A time=00:01:08.15 bitrate=N/A speed=16.5x    frame= 1821 fps=391 q=-0.0 size=N/A time=00:01:15.95 bitrate=N/A speed=16.3x    frame= 2017 fps=390 q=-0.0 size=N/A time=00:01:24.12 bitrate=N/A speed=16.3x    frame= 2128 fps=374 q=-0.0 size=N/A time=00:01:28.75 bitrate=N/A speed=15.6x    frame= 2305 fps=372 q=-0.0 size=N/A time=00:01:36.13 bitrate=N/A speed=15.5x    frame= 2452 fps=365 q=-0.0 size=N/A time=00:01:42.26 bitrate=N/A speed=15.2x    frame= 2599 fps=359 q=-0.0 size=N/A time=00:01:48.39 bitrate=N/A speed=  15x    frame= 2801 fps=361 q=-0.0 size=N/A time=00:01:56.82 bitrate=N/A speed=15.1x    frame= 3015 fps=365 q=-0.0 size=N/A time=00:02:05.75 bitrate=N/A speed=15.2x    frame= 3289 fps=374 q=-0.0 size=N/A time=00:02:17.17 bitrate=N/A speed=15.6x    frame= 3569 fps=384 q=-0.0 size=N/A time=00:02:28.85 bitrate=N/A speed=  16x    frame= 3857 fps=393 q=-0.0 size=N/A time=00:02:40.86 bitrate=N/A speed=16.4x    frame= 4143 fps=401 q=-0.0 size=N/A time=00:02:52.79 bitrate=N/A speed=16.7x    frame= 4421 fps=407 q=-0.0 size=N/A time=00:03:04.39 bitrate=N/A speed=  17x    frame= 4708 fps=414 q=-0.0 size=N/A time=00:03:16.36 bitrate=N/A speed=17.2x    frame= 4979 fps=419 q=-0.0 size=N/A time=00:03:27.66 bitrate=N/A speed=17.5x    frame= 5246 fps=423 q=-0.0 size=N/A time=00:03:38.80 bitrate=N/A speed=17.6x    frame= 5529 fps=428 q=-0.0 size=N/A time=00:03:50.60 bitrate=N/A speed=17.8x    frame= 5795 fps=431 q=-0.0 size=N/A time=00:04:01.69 bitrate=N/A speed=  18x    frame= 6061 fps=435 q=-0.0 size=N/A time=00:04:12.79 bitrate=N/A speed=18.1x    frame= 6342 fps=438 q=-0.0 size=N/A time=00:04:24.51 bitrate=N/A speed=18.3x    frame= 6622 fps=442 q=-0.0 size=N/A time=00:04:36.19 bitrate=N/A speed=18.4x    frame= 6900 fps=445 q=-0.0 size=N/A time=00:04:47.78 bitrate=N/A speed=18.6x    frame= 7145 fps=446 q=-0.0 size=N/A time=00:04:58.00 bitrate=N/A speed=18.6x    frame= 7415 fps=449 q=-0.0 size=N/A time=00:05:09.26 bitrate=N/A speed=18.7x    frame= 7634 fps=448 q=-0.0 size=N/A time=00:05:18.40 bitrate=N/A speed=18.7x    frame= 7900 fps=450 q=-0.0 size=N/A time=00:05:29.49 bitrate=N/A speed=18.8x    frame= 8154 fps=451 q=-0.0 size=N/A time=00:05:40.08 bitrate=N/A speed=18.8x    frame= 8423 fps=453 q=-0.0 size=N/A time=00:05:51.30 bitrate=N/A speed=18.9x    frame= 8679 fps=454 q=-0.0 size=N/A time=00:06:01.98 bitrate=N/A speed=18.9x    frame= 8949 fps=456 q=-0.0 size=N/A time=00:06:13.24 bitrate=N/A speed=  19x    frame= 9202 fps=457 q=-0.0 size=N/A time=00:06:23.80 bitrate=N/A speed=19.1x    frame= 9463 fps=458 q=-0.0 size=N/A time=00:06:34.68 bitrate=N/A speed=19.1x    frame= 9740 fps=460 q=-0.0 size=N/A time=00:06:46.23 bitrate=N/A speed=19.2x    frame= 9993 fps=461 q=-0.0 size=N/A time=00:06:56.79 bitrate=N/A speed=19.2x    frame=10252 fps=462 q=-0.0 size=N/A time=00:07:07.59 bitrate=N/A speed=19.3x    frame=10512 fps=463 q=-0.0 size=N/A time=00:07:18.43 bitrate=N/A speed=19.3x    frame=10771 fps=463 q=-0.0 size=N/A time=00:07:29.24 bitrate=N/A speed=19.3x    frame=11024 fps=464 q=-0.0 size=N/A time=00:07:39.79 bitrate=N/A speed=19.4x    frame=11257 fps=464 q=-0.0 size=N/A time=00:07:49.51 bitrate=N/A speed=19.4x    frame=11515 fps=465 q=-0.0 size=N/A time=00:08:00.27 bitrate=N/A speed=19.4x    frame=11777 fps=466 q=-0.0 size=N/A time=00:08:11.19 bitrate=N/A speed=19.4x    frame=12049 fps=467 q=-0.0 size=N/A time=00:08:22.54 bitrate=N/A speed=19.5x    frame=12314 fps=468 q=-0.0 size=N/A time=00:08:33.59 bitrate=N/A speed=19.5x    frame=12582 fps=469 q=-0.0 size=N/A time=00:08:44.77 bitrate=N/A speed=19.6x    frame=12858 fps=470 q=-0.0 size=N/A time=00:08:56.28 bitrate=N/A speed=19.6x    frame=13118 fps=471 q=-0.0 size=N/A time=00:09:07.12 bitrate=N/A speed=19.6x    frame=13368 fps=471 q=-0.0 size=N/A time=00:09:17.55 bitrate=N/A speed=19.6x    frame=13622 fps=471 q=-0.0 size=N/A time=00:09:28.15 bitrate=N/A speed=19.6x    frame=13895 fps=472 q=-0.0 size=N/A time=00:09:39.53 bitrate=N/A speed=19.7x    frame=14102 fps=471 q=-0.0 size=N/A time=00:09:48.17 bitrate=N/A speed=19.6x    frame=14363 fps=472 q=-0.0 size=N/A time=00:09:59.05 bitrate=N/A speed=19.7x    frame=14602 fps=472 q=-0.0 size=N/A time=00:10:09.02 bitrate=N/A speed=19.7x    frame=14860 fps=472 q=-0.0 size=N/A time=00:10:19.78 bitrate=N/A speed=19.7x    frame=15088 fps=472 q=-0.0 size=N/A time=00:10:29.29 bitrate=N/A speed=19.7x    frame=15302 fps=470 q=-0.0 size=N/A time=00:10:38.22 bitrate=N/A speed=19.6x    frame=15553 fps=471 q=-0.0 size=N/A time=00:10:48.68 bitrate=N/A speed=19.6x    frame=15828 fps=472 q=-0.0 size=N/A time=00:11:00.15 bitrate=N/A speed=19.7x    frame=16095 fps=473 q=-0.0 size=N/A time=00:11:11.29 bitrate=N/A speed=19.7x    frame=16372 fps=473 q=-0.0 size=N/A time=00:11:22.84 bitrate=N/A speed=19.7x    frame=16619 fps=474 q=-0.0 size=N/A time=00:11:33.15 bitrate=N/A speed=19.8x    frame=16896 fps=475 q=-0.0 size=N/A time=00:11:44.70 bitrate=N/A speed=19.8x    frame=17174 fps=475 q=-0.0 size=N/A time=00:11:56.29 bitrate=N/A speed=19.8x    frame=17438 fps=476 q=-0.0 size=N/A time=00:12:07.35 bitrate=N/A speed=19.9x    frame=17675 fps=476 q=-0.0 size=N/A time=00:12:17.19 bitrate=N/A speed=19.8x    frame=17922 fps=476 q=-0.0 size=N/A time=00:12:27.49 bitrate=N/A speed=19.8x    frame=18176 fps=476 q=-0.0 size=N/A time=00:12:38.09 bitrate=N/A speed=19.8x    frame=18399 fps=475 q=-0.0 size=N/A time=00:12:47.39 bitrate=N/A speed=19.8x    frame=18664 fps=476 q=-0.0 size=N/A time=00:12:58.44 bitrate=N/A speed=19.8x    frame=18944 fps=477 q=-0.0 size=N/A time=00:13:10.12 bitrate=N/A speed=19.9x    frame=19213 fps=477 q=-0.0 size=N/A time=00:13:21.34 bitrate=N/A speed=19.9x    frame=19492 fps=478 q=-0.0 size=N/A time=00:13:32.97 bitrate=N/A speed=19.9x    frame=19760 fps=479 q=-0.0 size=N/A time=00:13:44.15 bitrate=N/A speed=  20x    frame=20046 fps=480 q=-0.0 size=N/A time=00:13:56.08 bitrate=N/A speed=  20x    frame=20327 fps=480 q=-0.0 size=N/A time=00:14:07.80 bitrate=N/A speed=  20x    frame=20549 fps=480 q=-0.0 size=N/A time=00:14:17.06 bitrate=N/A speed=  20x    frame=20792 fps=480 q=-0.0 size=N/A time=00:14:27.19 bitrate=N/A speed=  20x    frame=21074 fps=480 q=-0.0 size=N/A time=00:14:38.96 bitrate=N/A speed=  20x    frame=21336 fps=481 q=-0.0 size=N/A time=00:14:49.88 bitrate=N/A speed=20.1x    frame=21611 fps=481 q=-0.0 size=N/A time=00:15:01.35 bitrate=N/A speed=20.1x    frame=21879 fps=482 q=-0.0 size=N/A time=00:15:12.53 bitrate=N/A speed=20.1x    frame=22159 fps=483 q=-0.0 size=N/A time=00:15:24.21 bitrate=N/A speed=20.1x    frame=22439 fps=483 q=-0.0 size=N/A time=00:15:35.89 bitrate=N/A speed=20.1x    frame=22708 fps=484 q=-0.0 size=N/A time=00:15:47.11 bitrate=N/A speed=20.2x    frame=22949 fps=484 q=-0.0 size=N/A time=00:15:57.16 bitrate=N/A speed=20.2x    frame=23227 fps=484 q=-0.0 size=N/A time=00:16:08.75 bitrate=N/A speed=20.2x    frame=23507 fps=485 q=-0.0 size=N/A time=00:16:20.43 bitrate=N/A speed=20.2x    frame=23783 fps=485 q=-0.0 size=N/A time=00:16:31.94 bitrate=N/A speed=20.2x    frame=24060 fps=486 q=-0.0 size=N/A time=00:16:43.50 bitrate=N/A speed=20.3x    frame=24313 fps=486 q=-0.0 size=N/A time=00:16:54.05 bitrate=N/A speed=20.3x    frame=24590 fps=486 q=-0.0 size=N/A time=00:17:05.60 bitrate=N/A speed=20.3x    frame=24861 fps=487 q=-0.0 size=N/A time=00:17:16.91 bitrate=N/A speed=20.3x    frame=25128 fps=487 q=-0.0 size=N/A time=00:17:28.04 bitrate=N/A speed=20.3x    frame=25407 fps=488 q=-0.0 size=N/A time=00:17:39.68 bitrate=N/A speed=20.3x    frame=25672 fps=488 q=-0.0 size=N/A time=00:17:50.73 bitrate=N/A speed=20.3x    frame=25938 fps=488 q=-0.0 size=N/A time=00:18:01.83 bitrate=N/A speed=20.4x    frame=26214 fps=489 q=-0.0 size=N/A time=00:18:13.34 bitrate=N/A speed=20.4x    frame=26489 fps=489 q=-0.0 size=N/A time=00:18:24.81 bitrate=N/A speed=20.4x    frame=26764 fps=489 q=-0.0 size=N/A time=00:18:36.32 bitrate=N/A speed=20.4x    frame=27004 fps=489 q=-0.0 size=N/A time=00:18:46.29 bitrate=N/A speed=20.4x    frame=27220 fps=489 q=-0.0 size=N/A time=00:18:55.30 bitrate=N/A speed=20.4x    frame=27467 fps=488 q=-0.0 size=N/A time=00:19:05.60 bitrate=N/A speed=20.4x    frame=27711 fps=488 q=-0.0 size=N/A time=00:19:15.77 bitrate=N/A speed=20.4x    frame=27959 fps=488 q=-0.0 size=N/A time=00:19:26.12 bitrate=N/A speed=20.4x    frame=28211 fps=488 q=-0.0 size=N/A time=00:19:36.63 bitrate=N/A speed=20.4x    frame=28459 fps=488 q=-0.0 size=N/A time=00:19:46.97 bitrate=N/A speed=20.4x    frame=28706 fps=488 q=-0.0 size=N/A time=00:19:57.27 bitrate=N/A speed=20.4x    frame=28898 fps=487 q=-0.0 size=N/A time=00:20:05.28 bitrate=N/A speed=20.3x    frame=29106 fps=486 q=-0.0 size=N/A time=00:20:13.96 bitrate=N/A speed=20.3x    frame=29333 fps=486 q=-0.0 size=N/A time=00:20:23.43 bitrate=N/A speed=20.3x    frame=29537 fps=485 q=-0.0 size=N/A time=00:20:31.93 bitrate=N/A speed=20.2x    frame=29746 fps=485 q=-0.0 size=N/A time=00:20:40.65 bitrate=N/A speed=20.2x    frame=29951 fps=484 q=-0.0 size=N/A time=00:20:49.20 bitrate=N/A speed=20.2x    frame=30160 fps=483 q=-0.0 size=N/A time=00:20:57.92 bitrate=N/A speed=20.2x    frame=30394 fps=483 q=-0.0 size=N/A time=00:21:07.68 bitrate=N/A speed=20.1x    frame=30660 fps=483 q=-0.0 size=N/A time=00:21:18.77 bitrate=N/A speed=20.2x    frame=30922 fps=483 q=-0.0 size=N/A time=00:21:29.70 bitrate=N/A speed=20.2x    frame=31178 fps=483 q=-0.0 size=N/A time=00:21:40.38 bitrate=N/A speed=20.2x    frame=31422 fps=483 q=-0.0 size=N/A time=00:21:50.55 bitrate=N/A speed=20.2x    frame=31679 fps=484 q=-0.0 size=N/A time=00:22:01.27 bitrate=N/A speed=20.2x    frame=31893 fps=483 q=-0.0 size=N/A time=00:22:10.20 bitrate=N/A speed=20.1x    frame=32131 fps=483 q=-0.0 size=N/A time=00:22:20.13 bitrate=N/A speed=20.1x    frame=32371 fps=483 q=-0.0 size=N/A time=00:22:30.14 bitrate=N/A speed=20.1x    frame=32622 fps=483 q=-0.0 size=N/A time=00:22:40.60 bitrate=N/A speed=20.1x    frame=32791 fps=482 q=-0.0 size=N/A time=00:22:47.65 bitrate=N/A speed=20.1x    frame=32993 fps=481 q=-0.0 size=N/A time=00:22:56.08 bitrate=N/A speed=20.1x    frame=33214 fps=480 q=-0.0 size=N/A time=00:23:05.30 bitrate=N/A speed=  20x    frame=33414 fps=480 q=-0.0 size=N/A time=00:23:13.64 bitrate=N/A speed=  20x    frame=33584 fps=479 q=-0.0 size=N/A time=00:23:20.73 bitrate=N/A speed=  20x    frame=33750 fps=478 q=-0.0 size=N/A time=00:23:27.65 bitrate=N/A speed=19.9x    frame=33888 fps=476 q=-0.0 size=N/A time=00:23:33.41 bitrate=N/A speed=19.9x    frame=34072 fps=475 q=-0.0 size=N/A time=00:23:41.08 bitrate=N/A speed=19.8x    frame=34254 fps=474 q=-0.0 size=N/A time=00:23:48.67 bitrate=N/A speed=19.8x    frame=34393 fps=473 q=-0.0 size=N/A time=00:23:54.47 bitrate=N/A speed=19.7x    frame=34592 fps=472 q=-0.0 size=N/A time=00:24:02.77 bitrate=N/A speed=19.7x    [Parsed_psnr_10 @ 00000228b3834880] PSNR y:48.949489 u:50.327744 v:50.379319 average:49.368990 min:38.002599 max:inf
[out#0/null @ 00000228b35b5ec0] video:14902KiB audio:271276KiB subtitle:0KiB other streams:0KiB global headers:0KiB muxing overhead: unknown
frame=34682 fps=472 q=-0.0 Lsize=N/A time=00:24:06.52 bitrate=N/A speed=19.7x    
